<svg xmlns="http://www.w3.org/2000/svg" width="194.92000000000002" height="35" viewBox="0 0 194.92000000000002 35"><rect class="svg__rect" x="0" y="0" width="100.91" height="35" fill="#000000"/><rect class="svg__rect" x="98.91" y="0" width="96.01000000000002" height="35" fill="#FED848"/><path class="svg__text" d="M13.95 18.19L13.95 18.19L13.95 17.39Q13.95 16.19 14.38 15.27Q14.80 14.35 15.60 13.85Q16.40 13.35 17.45 13.35L17.45 13.35Q18.86 13.35 19.73 14.12Q20.59 14.89 20.73 16.29L20.73 16.29L19.25 16.29Q19.14 15.37 18.71 14.96Q18.28 14.55 17.45 14.55L17.45 14.55Q16.48 14.55 15.97 15.26Q15.45 15.96 15.44 17.33L15.44 17.33L15.44 18.09Q15.44 19.47 15.93 20.20Q16.43 20.92 17.38 20.92L17.38 20.92Q18.25 20.92 18.69 20.53Q19.13 20.14 19.25 19.22L19.25 19.22L20.73 19.22Q20.60 20.59 19.72 21.35Q18.84 22.12 17.38 22.12L17.38 22.12Q16.36 22.12 15.59 21.63Q14.81 21.15 14.39 20.26Q13.97 19.37 13.95 18.19ZM24.77 18.00L24.77 18.00L24.77 17.52Q24.77 16.28 25.21 15.32Q25.65 14.37 26.46 13.86Q27.27 13.35 28.31 13.35Q29.35 13.35 30.16 13.85Q30.96 14.35 31.40 15.29Q31.84 16.23 31.85 17.48L31.85 17.48L31.85 17.96Q31.85 19.21 31.41 20.16Q30.98 21.10 30.18 21.61Q29.37 22.12 28.32 22.12L28.32 22.12Q27.28 22.12 26.47 21.61Q25.66 21.10 25.22 20.17Q24.78 19.23 24.77 18.00ZM26.25 17.46L26.25 17.96Q26.25 19.36 26.80 20.13Q27.35 20.90 28.32 20.90L28.32 20.90Q29.31 20.90 29.84 20.15Q30.37 19.40 30.37 17.96L30.37 17.96L30.37 17.51Q30.37 16.09 29.83 15.34Q29.29 14.58 28.31 14.58L28.31 14.58Q27.35 14.58 26.81 15.33Q26.26 16.09 26.25 17.46L26.25 17.46ZM38.77 22L36.31 22L36.31 13.47L38.83 13.47Q39.96 13.47 40.84 13.97Q41.72 14.48 42.20 15.40Q42.68 16.33 42.68 17.52L42.68 17.52L42.68 17.95Q42.68 19.16 42.19 20.08Q41.71 21.00 40.82 21.50Q39.92 22 38.77 22L38.77 22ZM37.80 14.66L37.80 20.82L38.76 20.82Q39.93 20.82 40.55 20.09Q41.18 19.36 41.19 17.99L41.19 17.99L41.19 17.52Q41.19 16.13 40.58 15.40Q39.98 14.66 38.83 14.66L38.83 14.66L37.80 14.66ZM52.72 22L47.14 22L47.14 13.47L52.68 13.47L52.68 14.66L48.62 14.66L48.62 17.02L52.13 17.02L52.13 18.19L48.62 18.19L48.62 20.82L52.72 20.82L52.72 22ZM59.37 22L56.91 22L56.91 13.47L59.43 13.47Q60.56 13.47 61.44 13.97Q62.32 14.48 62.80 15.40Q63.28 16.33 63.28 17.52L63.28 17.52L63.28 17.95Q63.28 19.16 62.79 20.08Q62.31 21.00 61.42 21.50Q60.52 22 59.37 22L59.37 22ZM58.40 14.66L58.40 20.82L59.36 20.82Q60.53 20.82 61.15 20.09Q61.78 19.36 61.79 17.99L61.79 17.99L61.79 17.52Q61.79 16.13 61.19 15.40Q60.58 14.66 59.43 14.66L59.43 14.66L58.40 14.66ZM75.28 22L73.81 22L73.81 13.47L75.28 13.47L75.28 22ZM81.58 22L80.09 22L80.09 13.47L81.58 13.47L85.39 19.54L85.39 13.47L86.86 13.47L86.86 22L85.38 22L81.58 15.95L81.58 22Z" fill="#FFFFFF"/><path class="svg__text" d="M115.48 22L113.10 22L113.10 13.60L116.94 13.60Q118.08 13.60 118.92 13.98Q119.76 14.35 120.22 15.06Q120.67 15.76 120.67 16.71L120.67 16.71Q120.67 17.66 120.22 18.35Q119.76 19.05 118.92 19.42Q118.08 19.80 116.94 19.80L116.94 19.80L115.48 19.80L115.48 22ZM115.48 15.47L115.48 17.93L116.80 17.93Q117.53 17.93 117.90 17.61Q118.27 17.29 118.27 16.71L118.27 16.71Q118.27 16.12 117.90 15.80Q117.53 15.47 116.80 15.47L116.80 15.47L115.48 15.47ZM127.55 18.95L124.35 13.60L126.86 13.60L128.85 16.94L130.84 13.60L133.14 13.60L129.93 18.99L129.93 22L127.55 22L127.55 18.95ZM139.02 15.48L136.44 15.48L136.44 13.60L143.96 13.60L143.96 15.48L141.39 15.48L141.39 22L139.02 22L139.02 15.48ZM150.71 22L148.33 22L148.33 13.60L150.71 13.60L150.71 16.76L153.95 16.76L153.95 13.60L156.32 13.60L156.32 22L153.95 22L153.95 18.72L150.71 18.72L150.71 22ZM161.06 17.80L161.06 17.80Q161.06 16.55 161.66 15.55Q162.26 14.56 163.33 14.00Q164.39 13.43 165.72 13.43L165.72 13.43Q167.05 13.43 168.11 14.00Q169.18 14.56 169.78 15.55Q170.39 16.55 170.39 17.80L170.39 17.80Q170.39 19.05 169.78 20.04Q169.18 21.04 168.12 21.60Q167.06 22.17 165.72 22.17L165.72 22.17Q164.39 22.17 163.33 21.60Q162.26 21.04 161.66 20.04Q161.06 19.05 161.06 17.80ZM163.45 17.80L163.45 17.80Q163.45 18.51 163.76 19.05Q164.06 19.60 164.57 19.90Q165.09 20.20 165.72 20.20L165.72 20.20Q166.36 20.20 166.88 19.90Q167.39 19.60 167.69 19.05Q167.99 18.51 167.99 17.80L167.99 17.80Q167.99 17.09 167.69 16.54Q167.39 16 166.88 15.70Q166.36 15.40 165.72 15.40L165.72 15.40Q165.08 15.40 164.57 15.70Q164.06 16 163.76 16.54Q163.45 17.09 163.45 17.80ZM177.45 22L175.12 22L175.12 13.60L177.08 13.60L180.79 18.07L180.79 13.60L183.11 13.60L183.11 22L181.16 22L177.45 17.52L177.45 22Z" fill="#000000" x="111.91"/></svg>