<svg xmlns="http://www.w3.org/2000/svg" width="152.79" height="35"><path class="svg__rect" d="M0 0h64.89v35H0z"/><path class="svg__rect" fill="#CD201F" d="M62.89 0h89.9v35h-89.9z"/><path class="svg__text" d="M14.08 19.16v-5.69h1.48v5.71q0 .85.43 1.3.44.45 1.28.45 1.71 0 1.71-1.8v-5.66h1.48v5.7q0 1.36-.87 2.15-.87.8-2.32.8-1.46 0-2.33-.79-.86-.78-.86-2.17Zm10.51.26h1.49q0 .73.48 1.13.48.4 1.37.4.78 0 1.17-.32.39-.31.39-.83 0-.56-.4-.86-.39-.31-1.43-.62-1.03-.31-1.64-.69-1.16-.73-1.16-1.91 0-1.03.84-1.7.84-.67 2.18-.67.89 0 1.59.33.7.33 1.09.93.4.61.4 1.35h-1.47q0-.67-.42-1.05-.42-.37-1.2-.37-.73 0-1.13.31-.4.31-.4.86 0 .47.43.79.44.31 1.43.6 1 .3 1.6.68.61.38.89.87.28.48.28 1.14 0 1.07-.82 1.7-.82.63-2.22.63-.92 0-1.7-.35-.77-.34-1.21-.94-.43-.61-.43-1.41ZM40.84 22h-5.58v-8.53h5.54v1.19h-4.06v2.36h3.5v1.17h-3.5v2.63h4.1V22Zm3.76-2.58h1.48q0 .73.48 1.13.48.4 1.38.4.77 0 1.16-.32.39-.31.39-.83 0-.56-.39-.86-.4-.31-1.43-.62-1.03-.31-1.64-.69-1.17-.73-1.17-1.91 0-1.03.84-1.7.84-.67 2.19-.67.89 0 1.58.33.7.33 1.1.93.4.61.4 1.35h-1.48q0-.67-.42-1.05-.42-.37-1.2-.37-.72 0-1.12.31-.41.31-.41.86 0 .47.44.79.43.31 1.43.6.99.3 1.6.68.6.38.88.87.28.48.28 1.14 0 1.07-.81 1.7-.82.63-2.22.63-.93 0-1.7-.35-.78-.34-1.21-.94-.43-.61-.43-1.41Zm34.6-.47L76 13.6h2.51l1.99 3.34 1.99-3.34h2.3l-3.21 5.39V22H79.2v-3.05Zm11.47-3.47h-2.58V13.6h7.52v1.88h-2.57V22h-2.37v-6.52Zm12.55 3.98h-3.5v-1.75h3.5v1.75Zm8.87 2.54h-3.97v-8.4h3.97q1.39 0 2.45.52 1.07.51 1.66 1.46.59.95.59 2.22 0 1.27-.59 2.22-.59.95-1.66 1.46-1.06.52-2.45.52Zm-1.59-6.5v4.6h1.5q1.08 0 1.73-.61.65-.61.65-1.69t-.65-1.69q-.65-.61-1.73-.61h-1.5Zm17.4 6.5h-6.38v-8.4h2.37v6.51h4.01V22Zm6.8 0h-2.38v-8.4h3.84q1.14 0 1.98.38.84.37 1.3 1.08.46.7.46 1.65t-.46 1.64q-.46.7-1.3 1.07-.84.38-1.98.38h-1.46V22Zm0-6.53v2.46h1.32q.73 0 1.1-.32.37-.32.37-.9 0-.59-.37-.91-.37-.33-1.1-.33h-1.32Z" fill="#FFF"/></svg>